{
	"asset":{
		"generator":"Khronos glTF Blender I/O v3.5.30",
		"version":"2.0"
	},
	"extensionsUsed":[
		"KHR_materials_transmission",
		"KHR_materials_specular"
	],
	"scene":0,
	"scenes":[
		{
			"name":"Scene",
			"nodes":[
				0
			]
		}
	],
	"nodes":[
		{
			"mesh":0,
			"name":"10778_Toilet_V2",
			"rotation":[
				0.015054315328598022,
				0,
				0,
				0.999886691570282
			]
		}
	],
	"materials":[
		{
			"doubleSided":true,
			"extensions":{
				"KHR_materials_transmission":{
					"transmissionFactor":1
				},
				"KHR_materials_specular":{
					"specularColorFactor":[
						1,
						1,
						1
					]
				}
			},
			"name":"_10778_Toilet_V201___Default",
			"pbrMetallicRoughness":{
				"baseColorTexture":{
					"index":0
				},
				"metallicFactor":0,
				"roughnessFactor":0.7741681933403015
			}
		}
	],
	"meshes":[
		{
			"name":"10778_Toilet_V2",
			"primitives":[
				{
					"attributes":{
						"POSITION":0,
						"TEXCOORD_0":1,
						"NORMAL":2
					},
					"indices":3,
					"material":0
				}
			]
		}
	],
	"textures":[
		{
			"sampler":0,
			"source":0
		}
	],
	"images":[
		{
			"bufferView":4,
			"mimeType":"image/jpeg",
			"name":"Toilet"
		}
	],
	"accessors":[
		{
			"bufferView":0,
			"componentType":5126,
			"count":27898,
			"max":[
				2.162100076675415,
				14.161499977111816,
				9.54640007019043
			],
			"min":[
				-12.618800163269043,
				-19.925500869750977,
				-15.896699905395508
			],
			"type":"VEC3"
		},
		{
			"bufferView":1,
			"componentType":5126,
			"count":27898,
			"type":"VEC2"
		},
		{
			"bufferView":2,
			"componentType":5126,
			"count":27898,
			"type":"VEC3"
		},
		{
			"bufferView":3,
			"componentType":5123,
			"count":141888,
			"type":"SCALAR"
		}
	],
	"bufferViews":[
		{
			"buffer":0,
			"byteLength":334776,
			"byteOffset":0,
			"target":34962
		},
		{
			"buffer":0,
			"byteLength":223184,
			"byteOffset":334776,
			"target":34962
		},
		{
			"buffer":0,
			"byteLength":334776,
			"byteOffset":557960,
			"target":34962
		},
		{
			"buffer":0,
			"byteLength":283776,
			"byteOffset":892736,
			"target":34963
		},
		{
			"buffer":0,
			"byteLength":328693,
			"byteOffset":1176512
		}
	],
	"samplers":[
		{
			"magFilter":9729,
			"minFilter":9987
		}
	],
	"buffers":[
		{
			"byteLength":1505208,
			"uri":"data:application/octet-stream;base64,"
		}
	]
}
